<?xml version="1.0" encoding="UTF-8" standalone="no"?>
<!-- Created with Inkscape (http://www.inkscape.org/) -->

<svg
   width="733.56134"
   height="607.53748"
   id="svg2"
   version="1.1"
   inkscape:version="1.2 (dc2aeda, 2022-05-15)"
   sodipodi:docname="logo.svg"
   inkscape:export-filename="/Users/ilyanetkach/Desktop/LOGO.png"
   inkscape:export-xdpi="300"
   inkscape:export-ydpi="300"
   xmlns:inkscape="http://www.inkscape.org/namespaces/inkscape"
   xmlns:sodipodi="http://sodipodi.sourceforge.net/DTD/sodipodi-0.dtd"
   xmlns="http://www.w3.org/2000/svg"
   xmlns:svg="http://www.w3.org/2000/svg"
   xmlns:rdf="http://www.w3.org/1999/02/22-rdf-syntax-ns#"
   xmlns:cc="http://creativecommons.org/ns#"
   xmlns:dc="http://purl.org/dc/elements/1.1/">
  <defs
     id="defs4">
    <linearGradient
       id="linearGradient5245"
       inkscape:swatch="solid">
      <stop
         style="stop-color:#000000;stop-opacity:1;"
         offset="0"
         id="stop5247" />
    </linearGradient>
    <linearGradient
       id="linearGradient5216"
       inkscape:swatch="solid">
      <stop
         style="stop-color:#000000;stop-opacity:1;"
         offset="0"
         id="stop5218" />
    </linearGradient>
  </defs>
  <sodipodi:namedview
     id="base"
     pagecolor="#ffffff"
     bordercolor="#666666"
     borderopacity="1.0"
     inkscape:pageopacity="0.0"
     inkscape:pageshadow="2"
     inkscape:zoom="0.4665165"
     inkscape:cx="18.220149"
     inkscape:cy="411.56101"
     inkscape:document-units="px"
     inkscape:current-layer="layer1"
     showgrid="false"
     inkscape:snap-smooth-nodes="true"
     inkscape:window-width="1280"
     inkscape:window-height="456"
     inkscape:window-x="0"
     inkscape:window-y="23"
     inkscape:window-maximized="0"
     inkscape:showpageshadow="2"
     inkscape:pagecheckerboard="0"
     inkscape:deskcolor="#d1d1d1">
    <inkscape:grid
       type="xygrid"
       id="grid2984"
       originx="-3.9370597"
       originy="-231.50557" />
  </sodipodi:namedview>
  <metadata
     id="metadata7">
    <rdf:RDF>
      <cc:Work
         rdf:about="">
        <dc:format>image/svg+xml</dc:format>
        <dc:type
           rdf:resource="http://purl.org/dc/dcmitype/StillImage" />
      </cc:Work>
    </rdf:RDF>
  </metadata>
  <g
     inkscape:label="Layer 1"
     inkscape:groupmode="layer"
     id="layer1"
     transform="translate(-3.9370597,-231.50557)">
    <path
       style="fill:#000000;fill-opacity:1;fill-rule:nonzero;stroke:#000000;stroke-opacity:0.79213488"
       id="path3017"
       d="m 259.28815,447.58167 c 29.73869,-13.01174 27.04562,-18.86744 45.55563,-5.10842 6.14261,4.49966 13.07905,7.96242 21.3005,9.77045 8.28405,1.52574 15.99778,1.13203 24.21322,-0.38081 2.15579,-0.51025 4.33398,-0.96959 6.46739,-1.53077 8.67973,-2.28314 17.35743,-5.00812 25.55585,-8.14064 3.23419,-1.23575 12.72042,-5.25223 9.53469,-3.94694 -5.6451,2.31295 -11.27521,4.64664 -16.91281,6.96996 13.72306,-7.18305 23.04924,-14.64438 29.04336,-26.39608 0.86985,-1.89354 2.88973,-8.76274 -2.66207,-6.99206 -8.83945,6.36994 2.05489,-1.65392 24.46171,-9.84023 1.13197,-0.41356 -1.66398,1.4365 -2.30437,2.25259 -0.97732,1.24544 -1.77792,2.56859 -2.52486,3.90156 -2.46491,4.39891 -4.24824,8.8406 -6.23409,13.37873 -11.04624,24.55897 -20.7949,49.43576 -30.5601,74.29692 -8.31521,21.78096 -16.63541,43.59296 -26.72074,64.95345 -3.19992,6.72336 -6.69571,13.42731 -11.62326,19.55976 -4.87401,6.06582 -10.98409,11.39749 -17.14747,16.7156 -12.94867,10.52445 -26.42207,20.70303 -41.14469,29.82176 -11.98396,6.42778 -14.77464,8.09075 -35.09696,15.20627 -1.175,0.41141 -2.61427,-0.35301 -3.70942,-0.87475 -4.7844,-2.27937 -6.15605,-6.85452 -7.7044,-10.58022 -2.26644,-9.69373 -1.94037,-19.95486 2.53324,-29.30206 0.90491,-1.89072 2.14639,-3.68006 3.21959,-5.52008 5.10189,-6.94099 12.40021,-12.8194 21.63124,-16.72209 34.15356,-14.43944 22.14457,-11.53299 42.01773,-15.52418 16.43529,-3.2208 32.4449,-0.73226 48.12618,3.32936 9.39022,3.04227 18.22383,7.26927 22.83814,14.41981 0.76865,1.19113 1.26205,2.47243 1.89306,3.70864 3.13105,9.31138 -1.29807,18.24121 -5.6161,26.87289 -5.4811,10.54452 -11.88899,20.80112 -18.0266,31.13602 -6.69097,10.06306 -12.52716,20.38171 -17.88961,30.87912 -3.28254,6.40132 -7.01725,12.66412 -10.14065,19.11138 -1.7426,3.90483 -2.8224,7.98582 -2.98418,12.10776 1.5312,9.08465 -24.97692,19.34944 -30.40205,10.83646 0,0 28.85378,-12.32444 28.85378,-12.32444 v 0 c 4.82232,7.93161 -34.6988,20.10532 -28.12041,12.56731 1.07952,-4.28178 1.30959,-8.6938 3.24301,-12.84706 3.16324,-6.62067 7.10021,-12.97918 10.83496,-19.42406 5.56379,-10.49424 11.25725,-20.93208 17.99535,-31.03975 6.11982,-10.28517 12.57223,-20.4731 18.01619,-30.97471 4.02047,-8.01853 8.57041,-16.43534 6.16691,-25.14266 -4.46601,-9.1561 -10.86585,-12.69967 -22.58898,-16.63589 -15.77321,-3.91548 -30.64804,-5.67953 -46.97014,-2.1887 -15.57747,3.72354 -8.34896,2.52074 11.99292,-7.40447 2.16866,-1.05813 -4.58478,1.8156 -6.71225,2.92021 -3.80661,1.97644 -8.3776,5.18101 -11.31004,7.87396 -1.59759,1.46713 -2.88974,3.10898 -4.33461,4.66347 -1.12602,1.74067 -2.40915,3.42843 -3.37805,5.22201 -4.74079,8.77603 -5.4115,18.61037 -2.98021,27.82827 1.09355,2.3826 1.78938,4.80564 4.05617,6.76455 0.64248,0.55521 1.48314,1.03826 2.42016,1.24793 0.80473,0.18006 3.21305,-0.49139 2.51099,-0.14454 -6.37985,3.15185 -35.99103,16.17244 -19.68587,8.79528 15.36217,-8.72704 28.92704,-19.02886 42.00465,-29.63053 13.18936,-11.07424 23.19815,-21.37375 29.69219,-35.65616 11.10661,-21.42733 20.09053,-43.43993 28.72448,-65.49402 9.63932,-24.46776 18.88176,-49.02309 28.35735,-73.52699 6.33783,-17.25417 8.24361,-31.42793 41.12989,-34.13345 7.42383,1.82645 6.54375,6.55797 4.84305,11.39613 -1.73485,3.50892 -2.37958,5.21097 -4.92302,8.56943 -6.02166,7.95118 -14.94428,14.29015 -24.66899,19.64748 -25.14386,11.2439 -49.93907,23.67484 -78.47546,29.52436 -8.5804,1.25214 -17.29129,1.70595 -25.73077,-0.40047 -8.30547,-2.33875 -15.36781,-6.20246 -21.77277,-10.80902 -2.91689,-2.0005 -5.9943,-4.37177 -9.79265,-5.43987 -1.89335,-0.53242 -2.34202,-0.14411 -4.14089,0.32599 8.84039,-3.90686 17.68078,-7.81373 26.52117,-11.72059 0,0 -30.76521,9.22184 -30.76521,9.22184 z"
       inkscape:connector-curvature="0" />
    <path
       style="fill:#000000;fill-opacity:1;fill-rule:nonzero;stroke:none"
       id="path3019"
       d="m 361.83039,629.74274 c 2.84579,-4.24932 6.6975,-8.0055 11.99869,-11.3223 18.49131,-9.01895 35.92518,-16.57185 58.52796,-13.68391 11.80805,2.0496 14.91537,4.36057 17.70943,11.33643 2.47563,13.12902 -1.87009,26.4563 -5.72861,39.35808 -6.66479,21.19937 -17.66187,41.73758 -28.86793,62.20944 -9.42807,15.54626 -17.27609,31.3933 -22.80386,47.58285 -1.24294,4.31763 -2.6098,8.64323 -2.6725,13.03801 -0.003,0.18078 -0.43198,3.80507 1.29531,3.55411 0.46712,-0.3267 0.82537,-0.72121 1.40132,-0.98007 7.64959,-3.438 17.66966,-5.67765 26.06069,-8.25502 11.89091,-3.6524 23.68072,-7.41892 35.54539,-11.10105 7.0387,-2.33224 14.10945,-4.63094 21.11611,-6.9967 2.35244,-0.79428 -9.3906,3.18398 -7.15211,2.28182 6.99212,-2.818 14.37815,-5.28033 21.43739,-8.03914 18.09881,-7.07315 35.31419,-14.77673 52.38566,-22.67616 11.46081,-5.69786 22.64933,-11.58512 32.52273,-18.25069 0,0 35.95214,-8.95634 35.95214,-8.95634 v 0 c -10.73933,7.06398 -22.85474,13.27851 -35.20388,19.34217 -17.60547,8.03058 -35.33153,15.93342 -53.84984,23.22517 -25.02046,9.85204 -44.80775,16.28234 -72.82594,25.84635 -7.18615,2.45298 -14.46692,4.80768 -21.70038,7.21152 -6.59128,2.08415 -13.18258,4.1683 -19.77386,6.25247 -5.75521,1.84369 -11.49775,3.70124 -17.26559,5.53106 -4.60761,1.46175 -9.25119,2.88358 -13.86041,4.34357 -1.70295,0.53943 -12.02789,4.21354 -15.76463,4.47977 -1.25143,0.0892 -2.41146,-0.43468 -3.61718,-0.65202 -0.51033,-0.42906 -1.20678,-0.79888 -1.53099,-1.28716 -0.84665,-1.27515 -0.53623,-3.1759 -0.39927,-4.42826 0.50469,-4.61471 1.96833,-9.14378 3.54433,-13.66767 6.35785,-16.38052 14.49767,-32.5092 24.35412,-48.27539 11.43506,-20.28238 22.67393,-40.64302 28.67266,-61.7927 3.33555,-12.401 6.606,-25.2265 3.86909,-37.7723 -2.48426,-6.0369 -5.06116,-7.54876 -15.49819,-8.92787 -4.30371,-0.3169 -8.17388,-0.40925 -12.45438,0.15363 -1.20134,0.15798 -4.58038,1.00895 -3.54009,0.62002 21.10195,-7.88928 42.35519,-14.32813 27.08482,-9.66457 -5.45453,2.96328 -9.89327,6.04936 -12.16221,10.29395 0,0 -36.80599,10.0689 -36.80599,10.0689 z"
       inkscape:connector-curvature="0" />
    <path
       style="color:#000000;font-style:normal;font-variant:normal;font-weight:normal;font-stretch:normal;font-size:medium;line-height:normal;font-family:Sans;-inkscape-font-specification:Sans;text-indent:0;text-align:start;text-decoration:none;text-decoration-line:none;letter-spacing:normal;word-spacing:normal;text-transform:none;writing-mode:lr-tb;direction:ltr;baseline-shift:baseline;text-anchor:start;display:inline;overflow:visible;visibility:visible;fill:#000000;fill-opacity:1;stroke:#000000;stroke-width:6.597;stroke-miterlimit:4;stroke-dasharray:none;stroke-opacity:0.99438202;marker:none;enable-background:accumulate"
       d="m 370.71773,237.90819 -0.43759,0.728 -360.074324,596.38037 -0.4375908,0.72801 h 0.8751808 720.148654 0.87518 l -0.43759,-0.72801 -360.07433,-596.38037 z m 0,1.95105 359.19915,594.92437 H 11.518587 Z"
       id="path2986"
       inkscape:connector-curvature="0" />
  </g>
</svg>
